PathFileType	4	(X/Y/Z)	38_1_4_p0_0-436_filt_butterworth.trc
DataRate	CameraRate	NumFrames	NumMarkers	Units	OrigDataRate	OrigDataStartFrame	OrigNumFrames
50.0	50.0	5	27	m	50.0	327	436
Frame#	Time	RHip			RKnee			RAnkle			RBigToe			RSmallToe			RHeel			LHip			LKnee			LAnkle			LBigToe			LSmallToe			LHeel			Neck			Head			Nose			RShoulder			RElbow			RWrist			RThumb			RIndex			RPinky			LShoulder			LElbow			LWrist			LThumb			LIndex			LPinky			
		X1	Y1	Z1	X2	Y2	Z2	X3	Y3	Z3	X4	Y4	Z4	X5	Y5	Z5	X6	Y6	Z6	X7	Y7	Z7	X8	Y8	Z8	X9	Y9	Z9	X10	Y10	Z10	X11	Y11	Z11	X12	Y12	Z12	X13	Y13	Z13	X14	Y14	Z14	X15	Y15	Z15	X16	Y16	Z16	X17	Y17	Z17	X18	Y18	Z18	X19	Y19	Z19	X20	Y20	Z20	X21	Y21	Z21	X22	Y22	Z22	X23	Y23	Z23	X24	Y24	Z24	X25	Y25	Z25	X26	Y26	Z26	X27	Y27	Z27	
327	6.54	0.40196268791526363	0.6956861279032067	0.879841663298116	0.4012239987863063	0.21978432010238344	0.9787091227059025	0.36419161692339347	-0.20567073789992585	1.018878461285812	0.32602419229389257	-0.2433169414618169	0.8677775008659255	0.38608812571711226	-0.2400742199218059	0.8692093113488363	0.34745127040712975	-0.2805836267958741	1.1133340398278166	0.18993119420399923	0.6840379231481113	0.9149987472012304	0.190531173295599	0.22743014433274175	0.9920746835126857	0.1891170321271659	-0.1896679752477161	1.043028407771732	0.17640581446320855	-0.21983993937978477	0.871905014895753	0.12225884630731901	-0.21933610677227003	0.9079625461648072	0.20706267265123268	-0.2737878455000484	1.0896560052790343	0.28937190762846926	1.3099915971054745	0.9076243449114143	0.29681885522408064	1.5765827235714047	0.8412139385687731	0.29564967449485113	1.4224959422521846	0.780584674104909	0.4651790266065768	1.2412330133774767	0.9580692944414497	0.6961292336434262	1.2036934177096263	0.8253195016189199	0.6866270777609323	1.4141126515000795	0.7107518631130458	0.6447015499357116	1.517424913658847	0.6603474830207332	0.6812499951083864	1.5548719604869683	0.6209152857244886	0.7185020621694558	1.510865740192571	0.60960173212079	0.11537377549695682	1.2183697875705652	0.9534134750940226	0.05593512629083437	0.9367014480580423	0.967143348873682	0.06793810956011753	0.6856081972816181	0.8847023642579961	0.1080171729220528	0.5738813980136276	0.8782784305155737	0.08022479524424675	0.5085301749178334	0.8874659622966442	0.05158103593367193	0.5303963699115593	0.9179473390275099	
328	6.56	0.4017607528593161	0.6959761573276378	0.880567599326884	0.40118160957270854	0.21987261842705272	0.9786801851426701	0.36463514913814815	-0.2061944432024322	1.0199885519265057	0.3269702157602675	-0.24431155189587564	0.8686785396293354	0.3868361823335129	-0.2408408964490641	0.8690090948058369	0.3476175422704411	-0.2807391432275384	1.1137809415942959	0.18986678220338377	0.683913290431969	0.9153320708148437	0.19051530477888126	0.22778413643947995	0.9921241938843632	0.18913694848051685	-0.18965490393626944	1.043003269685338	0.17511678140940273	-0.21965659632053003	0.8716465491474366	0.12218743524207179	-0.21894175074014427	0.9078422264010484	0.20704210245864968	-0.2739043794696925	1.0897071641692664	0.28944512525953925	1.3098943685607223	0.9076357984324891	0.2999235321136283	1.5762905810879428	0.8379758434291582	0.29697428946794324	1.4221831696445526	0.7825610533008198	0.46524098963953064	1.2419482888166238	0.9579508647675394	0.6975563841815298	1.2078562309449665	0.8247204503323972	0.6930288993816245	1.4178332277984733	0.7126465715537358	0.6511781577427558	1.5222986483691539	0.661477597035482	0.6918494959707823	1.5618265937748936	0.623003261139004	0.7293732479727746	1.5193027892852062	0.6194412971688306	0.11584495595127048	1.2186535650559926	0.9509346782725521	0.05574966229097554	0.9364677781549401	0.9676746995517721	0.0690136352818424	0.685277060583756	0.8846816884350434	0.11099469715085278	0.5758711826677391	0.8732343925539521	0.08352516757268626	0.5084331304600656	0.8877703264569955	0.05452991472103656	0.5300391888520517	0.9117520867200155	
329	6.58	0.40150446093837305	0.6959711950513593	0.8817297604405411	0.4011496622762402	0.2197463773426609	0.9787096314991846	0.36491704512796513	-0.20652794951882625	1.0206867880705761	0.3276537049487571	-0.2452838074146665	0.8691410724391336	0.38804904054156497	-0.24209517824141008	0.8693975635039959	0.3477793460715683	-0.2807984899815772	1.1142289618295882	0.18983271414807107	0.6837679408243422	0.9154327098892219	0.1905608659105534	0.22819669123864308	0.9919708642512696	0.1891485420894407	-0.18964951379035555	1.0429901262863064	0.17380048406625193	-0.21948298995219703	0.8713991084314524	0.12210154484282515	-0.21862598973066716	0.9077568335540753	0.20703786288022055	-0.2740344409570247	1.0897184726390479	0.2894976356294386	1.309871367980608	0.9076754028357604	0.30307981679133894	1.5761538582210466	0.833477333614778	0.29869699887937345	1.4219553993932732	0.7847134472846438	0.4654002984142098	1.2428050399045458	0.956777839104038	0.6991233551599871	1.212440359667391	0.8238456233181832	0.6981352953443732	1.4225260286628352	0.713113952875888	0.6564303644383103	1.529392707367117	0.6571145279476485	0.7005641490317993	1.5703535392396002	0.6250154594899905	0.7423234763206648	1.5299058168479902	0.6321304684237078	0.1163360758312923	1.2190147766213029	0.9479455848347351	0.05564961902617774	0.9362919585750532	0.968271135011459	0.06936547828331807	0.6846878591992054	0.8845832653279262	0.11365232734838494	0.5783537870806982	0.8672330095252353	0.08659326380223727	0.5088108040248748	0.8869434415219422	0.0571640722376492	0.5289578401076349	0.9072796316834854	
330	6.6	0.4012719020240581	0.6957609426370958	0.8830622175861945	0.4011288591163232	0.21942256333131258	0.9787863966603558	0.3650421345809537	-0.2066741445216076	1.0209843391054436	0.3279837132801108	-0.24602747689822632	0.869539858882409	0.3895363788278662	-0.24355177398428565	0.8701259055185754	0.34785039530142364	-0.2807157263996947	1.1144417471542152	0.18983894319825942	0.6837157611538565	0.9152704236731456	0.19066391651451897	0.22850297902841402	0.9917697032879099	0.1891563484964172	-0.1896470509965607	1.0429891048410929	0.17280055472805697	-0.21936491795561852	0.8712349086918836	0.12204137201455201	-0.2184304602078761	0.9076991234951238	0.20704546473016391	-0.27417032913023875	1.0896894383028977	0.289479407683115	1.3098829041113695	0.907715659735705	0.30596405472750104	1.5762448033711824	0.8284176607124414	0.3004821137688267	1.421905357829588	0.7868093351208436	0.46563343895433895	1.2436785417815115	0.9546508353667451	0.7006859436202943	1.2171175584774592	0.8227804359647516	0.7027524082720088	1.4278260085811054	0.7132873796786503	0.6615288928594232	1.5383658234660662	0.6522497156351988	0.7068540484045006	1.5792470607152036	0.6269139800401534	0.7558463210546764	1.542066741068373	0.6458993876961173	0.11697885229360333	1.2193413027179871	0.9453401125418908	0.05566651825725272	0.9363452296127105	0.9684713318800307	0.06925293612523298	0.6839260050085868	0.8843457233923224	0.11573263866539801	0.5810750333599006	0.8609268475186672	0.08935784981275317	0.5097823958619436	0.885057429238268	0.059401841833454275	0.5280458181380785	0.903698674419364	
331	6.62	0.40108237638768873	0.6954470796473478	0.8842789252214036	0.4011236681433231	0.21890377034036101	0.9789016974468789	0.3650194974325199	-0.20664118055215352	1.0209095524003675	0.32805446763658114	-0.24642817032217532	0.8698717203879315	0.3909344262643215	-0.2447449014281332	0.8708033839108779	0.34780901811275367	-0.28049755041686436	1.1143646024114777	0.1898839728617295	0.6838258178560229	0.914896080204897	0.19080044985475303	0.22870110447023048	0.9914965505085575	0.18916527598374672	-0.1896472568825763	1.0429970745701314	0.17243152496787278	-0.21930810414038357	0.8711505566073554	0.12202962747904783	-0.2184220927438093	0.907672727601885	0.20705568399034788	-0.27426605181476443	1.0896530948150176	0.28938797740191724	1.3098618210677146	0.9076360452920189	0.3083319889167089	1.5765432579438756	0.8234443985266184	0.30199011867876874	1.4221087981787097	0.7885659936382869	0.4659154683874446	1.2444122213339814	0.9519286870441633	0.70223054884114	1.2213471116129482	0.8216411026767587	0.7070090989944082	1.4333937631113898	0.7132229273364812	0.6673051560453134	1.5487048801644832	0.6510067326944549	0.7107748471804691	1.5872709340352729	0.6291205631889181	0.7682149758726112	1.5548172752891196	0.658577968527027	0.11783367605651862	1.2194713938822745	0.9438104129818006	0.05586445136710896	0.9365598476372469	0.9675979952894117	0.0690419484838662	0.6831389742413584	0.8840310051383304	0.11723718180715527	0.583446507047713	0.8550743553284789	0.09181753051899642	0.5109941175212562	0.8825007917749518	0.06106125826394879	0.5274311031841383	0.9007951898610972	
